STARTFONT 2.1
FONT -DEC-FrankRuhl-Bold-R-Normal--11-80-100-100-P-66-ISO8859-8
SIZE 8 100 100
FONTBOUNDINGBOX 11 13 0 -3

STARTPROPERTIES 26
FONTNAME_REGISTRY ""
FAMILY_NAME "FrankRuhl"
FOUNDRY "DEC"
WEIGHT_NAME "Bold"
SLANT "R"
SETWIDTH_NAME "Normal"
ADD_STYLE_NAME ""
PIXEL_SIZE 11
RESOLUTION_X 100
RESOLUTION_Y 100
SPACING "P"
AVERAGE_WIDTH 66
CHARSET_REGISTRY "ISO8859"
CHARSET_ENCODING "8"
CHARSET_COLLECTIONS "ASCII ISO8859-8 "
FULL_NAME "FrankRuhl Bold"
COPYRIGHT "Digital Israel"
CAP_HEIGHT 8
X_HEIGHT 5
_DEC_DEVICE_FONTNAMES "PS=FrankRuhl-Bold-ISOLatinHebrew"
QUAD_WIDTH 5
POINT_SIZE 80
WEIGHT 10
DEFAULT_CHAR 0
FONT_DESCENT 2
FONT_ASCENT 10
ENDPROPERTIES

CHARS 152

STARTCHAR space
ENCODING 32
SWIDTH 180 0
DWIDTH 2 0
BBX 1 1 0 0
BITMAP
00
ENDCHAR

STARTCHAR exclam
ENCODING 33
SWIDTH 270 0
DWIDTH 3 0
BBX 2 8 0 0
BITMAP
C0
C0
C0
80
80
00
C0
C0
ENDCHAR

STARTCHAR quotedbl
ENCODING 34
SWIDTH 540 0
DWIDTH 6 0
BBX 3 3 1 5
BITMAP
A0
A0
A0
ENDCHAR

STARTCHAR numbersign
ENCODING 35
SWIDTH 720 0
DWIDTH 8 0
BBX 7 8 0 0
BITMAP
14
14
7E
28
28
FC
50
50
ENDCHAR

STARTCHAR dollar
ENCODING 36
SWIDTH 540 0
DWIDTH 6 0
BBX 5 10 0 -1
BITMAP
20
78
A8
A0
F0
78
28
A8
F0
20
ENDCHAR

STARTCHAR percent
ENCODING 37
SWIDTH 990 0
DWIDTH 11 0
BBX 10 8 0 0
BITMAP
6600
DA00
D400
D580
6B40
0B40
1340
1180
ENDCHAR

STARTCHAR ampersand
ENCODING 38
SWIDTH 810 0
DWIDTH 9 0
BBX 8 8 0 0
BITMAP
30
68
68
30
58
CC
CF
76
ENDCHAR

STARTCHAR quoteright
ENCODING 39
SWIDTH 270 0
DWIDTH 3 0
BBX 2 4 0 4
BITMAP
C0
C0
40
80
ENDCHAR

STARTCHAR parenleft
ENCODING 40
SWIDTH 450 0
DWIDTH 5 0
BBX 4 10 0 -2
BITMAP
10
20
60
C0
C0
C0
C0
60
20
10
ENDCHAR

STARTCHAR parenright
ENCODING 41
SWIDTH 450 0
DWIDTH 5 0
BBX 4 10 0 -2
BITMAP
80
40
60
30
30
30
30
60
40
80
ENDCHAR

STARTCHAR asterisk
ENCODING 42
SWIDTH 540 0
DWIDTH 6 0
BBX 5 5 0 3
BITMAP
20
A8
70
A8
20
ENDCHAR

STARTCHAR plus
ENCODING 43
SWIDTH 540 0
DWIDTH 6 0
BBX 5 5 0 1
BITMAP
20
20
F8
20
20
ENDCHAR

STARTCHAR comma
ENCODING 44
SWIDTH 270 0
DWIDTH 3 0
BBX 2 4 0 -2
BITMAP
C0
C0
40
80
ENDCHAR

STARTCHAR minus
ENCODING 45
SWIDTH 540 0
DWIDTH 6 0
BBX 5 1 0 3
BITMAP
F8
ENDCHAR

STARTCHAR period
ENCODING 46
SWIDTH 270 0
DWIDTH 3 0
BBX 2 2 0 0
BITMAP
C0
C0
ENDCHAR

STARTCHAR slash
ENCODING 47
SWIDTH 450 0
DWIDTH 5 0
BBX 4 8 0 0
BITMAP
10
10
20
20
40
40
80
80
ENDCHAR

STARTCHAR zero
ENCODING 48
SWIDTH 540 0
DWIDTH 6 0
BBX 5 8 0 0
BITMAP
70
D8
D8
D8
D8
D8
D8
70
ENDCHAR

STARTCHAR one
ENCODING 49
SWIDTH 450 0
DWIDTH 5 0
BBX 4 8 0 0
BITMAP
60
E0
60
60
60
60
60
F0
ENDCHAR

STARTCHAR two
ENCODING 50
SWIDTH 540 0
DWIDTH 6 0
BBX 5 8 0 0
BITMAP
70
D8
D8
18
30
40
F8
F8
ENDCHAR

STARTCHAR three
ENCODING 51
SWIDTH 540 0
DWIDTH 6 0
BBX 5 8 0 0
BITMAP
70
D8
D8
30
18
D8
D8
70
ENDCHAR

STARTCHAR four
ENCODING 52
SWIDTH 540 0
DWIDTH 6 0
BBX 5 8 0 0
BITMAP
38
38
58
58
98
F8
18
38
ENDCHAR

STARTCHAR five
ENCODING 53
SWIDTH 540 0
DWIDTH 6 0
BBX 5 8 0 0
BITMAP
F8
F0
80
F0
18
D8
D8
70
ENDCHAR

STARTCHAR six
ENCODING 54
SWIDTH 540 0
DWIDTH 6 0
BBX 5 8 0 0
BITMAP
70
D8
C0
F0
D8
D8
D8
70
ENDCHAR

STARTCHAR seven
ENCODING 55
SWIDTH 450 0
DWIDTH 5 0
BBX 4 8 0 0
BITMAP
F0
F0
10
20
20
60
60
60
ENDCHAR

STARTCHAR eight
ENCODING 56
SWIDTH 540 0
DWIDTH 6 0
BBX 5 8 0 0
BITMAP
70
D8
D8
70
D8
D8
D8
70
ENDCHAR

STARTCHAR nine
ENCODING 57
SWIDTH 540 0
DWIDTH 6 0
BBX 5 8 0 0
BITMAP
70
D8
D8
D8
78
18
D8
70
ENDCHAR

STARTCHAR colon
ENCODING 58
SWIDTH 270 0
DWIDTH 3 0
BBX 2 5 0 0
BITMAP
C0
C0
00
C0
C0
ENDCHAR

STARTCHAR semicolon
ENCODING 59
SWIDTH 270 0
DWIDTH 3 0
BBX 2 7 0 -2
BITMAP
C0
C0
00
C0
C0
40
80
ENDCHAR

STARTCHAR less
ENCODING 60
SWIDTH 630 0
DWIDTH 7 0
BBX 6 5 0 1
BITMAP
0C
30
C0
30
0C
ENDCHAR

STARTCHAR equal
ENCODING 61
SWIDTH 540 0
DWIDTH 6 0
BBX 5 3 0 2
BITMAP
F8
00
F8
ENDCHAR

STARTCHAR greater
ENCODING 62
SWIDTH 630 0
DWIDTH 7 0
BBX 6 5 0 1
BITMAP
C0
30
0C
30
C0
ENDCHAR

STARTCHAR question
ENCODING 63
SWIDTH 540 0
DWIDTH 6 0
BBX 5 8 0 0
BITMAP
70
D8
18
30
40
00
60
60
ENDCHAR

STARTCHAR at
ENCODING 64
SWIDTH 900 0
DWIDTH 10 0
BBX 9 10 0 -1
BITMAP
1C00
6300
4100
9E80
B680
B680
9B00
4000
6000
1E00
ENDCHAR

STARTCHAR A
ENCODING 65
SWIDTH 720 0
DWIDTH 8 0
BBX 8 8 0 0
BITMAP
10
38
38
4C
4C
FE
86
CF
ENDCHAR

STARTCHAR B
ENCODING 66
SWIDTH 720 0
DWIDTH 8 0
BBX 7 8 0 0
BITMAP
FC
66
66
7C
66
66
66
FC
ENDCHAR

STARTCHAR C
ENCODING 67
SWIDTH 720 0
DWIDTH 8 0
BBX 7 8 0 0
BITMAP
3A
46
C2
C0
C0
C2
42
3C
ENDCHAR

STARTCHAR D
ENCODING 68
SWIDTH 810 0
DWIDTH 9 0
BBX 8 8 0 0
BITMAP
FC
62
63
63
63
63
62
FC
ENDCHAR

STARTCHAR E
ENCODING 69
SWIDTH 630 0
DWIDTH 7 0
BBX 6 8 0 0
BITMAP
FC
64
68
78
68
64
64
FC
ENDCHAR

STARTCHAR F
ENCODING 70
SWIDTH 630 0
DWIDTH 7 0
BBX 6 8 0 0
BITMAP
FC
64
64
68
78
68
60
F0
ENDCHAR

STARTCHAR G
ENCODING 71
SWIDTH 720 0
DWIDTH 8 0
BBX 7 8 0 0
BITMAP
3A
46
C2
C0
CE
C6
46
3A
ENDCHAR

STARTCHAR H
ENCODING 72
SWIDTH 900 0
DWIDTH 10 0
BBX 9 8 0 0
BITMAP
F780
6300
6300
7F00
6300
6300
6300
F780
ENDCHAR

STARTCHAR I
ENCODING 73
SWIDTH 450 0
DWIDTH 5 0
BBX 4 8 0 0
BITMAP
F0
60
60
60
60
60
60
F0
ENDCHAR

STARTCHAR J
ENCODING 74
SWIDTH 630 0
DWIDTH 7 0
BBX 6 8 0 0
BITMAP
3C
18
18
18
D8
D8
98
70
ENDCHAR

STARTCHAR K
ENCODING 75
SWIDTH 810 0
DWIDTH 9 0
BBX 9 8 0 0
BITMAP
F300
6200
6400
6800
7C00
6600
6300
F380
ENDCHAR

STARTCHAR L
ENCODING 76
SWIDTH 630 0
DWIDTH 7 0
BBX 6 8 0 0
BITMAP
F0
60
60
60
60
64
64
FC
ENDCHAR

STARTCHAR M
ENCODING 77
SWIDTH 1080 0
DWIDTH 12 0
BBX 11 8 0 0
BITMAP
F1E0
71C0
5AC0
5AC0
5AC0
4CC0
4CC0
EDE0
ENDCHAR

STARTCHAR N
ENCODING 78
SWIDTH 810 0
DWIDTH 9 0
BBX 8 8 0 0
BITMAP
C7
62
72
7A
5E
4E
46
E2
ENDCHAR

STARTCHAR O
ENCODING 79
SWIDTH 720 0
DWIDTH 8 0
BBX 7 8 0 0
BITMAP
38
44
C6
C6
C6
C6
44
38
ENDCHAR

STARTCHAR P
ENCODING 80
SWIDTH 720 0
DWIDTH 8 0
BBX 7 8 0 0
BITMAP
FC
66
66
66
7C
60
60
F0
ENDCHAR

STARTCHAR Q
ENCODING 81
SWIDTH 720 0
DWIDTH 8 0
BBX 8 9 0 -1
BITMAP
38
44
C6
C6
C6
F6
6C
3D
06
ENDCHAR

STARTCHAR R
ENCODING 82
SWIDTH 810 0
DWIDTH 9 0
BBX 8 8 0 0
BITMAP
FC
66
66
64
7C
66
66
F7
ENDCHAR

STARTCHAR S
ENCODING 83
SWIDTH 630 0
DWIDTH 7 0
BBX 6 8 0 0
BITMAP
74
CC
C4
F0
3C
8C
CC
B8
ENDCHAR

STARTCHAR T
ENCODING 84
SWIDTH 630 0
DWIDTH 7 0
BBX 6 8 0 0
BITMAP
FC
B4
B4
30
30
30
30
78
ENDCHAR

STARTCHAR U
ENCODING 85
SWIDTH 810 0
DWIDTH 9 0
BBX 8 8 0 0
BITMAP
F7
62
62
62
62
62
62
3C
ENDCHAR

STARTCHAR V
ENCODING 86
SWIDTH 810 0
DWIDTH 9 0
BBX 8 8 0 0
BITMAP
F7
62
62
34
34
34
18
18
ENDCHAR

STARTCHAR W
ENCODING 87
SWIDTH 1080 0
DWIDTH 12 0
BBX 11 8 0 0
BITMAP
F6E0
6640
6640
6B40
6B40
3B80
3180
3180
ENDCHAR

STARTCHAR X
ENCODING 88
SWIDTH 810 0
DWIDTH 9 0
BBX 8 8 0 0
BITMAP
F7
62
74
38
1C
2E
46
EF
ENDCHAR

STARTCHAR Y
ENCODING 89
SWIDTH 810 0
DWIDTH 9 0
BBX 8 8 0 0
BITMAP
F7
62
34
34
18
18
18
3C
ENDCHAR

STARTCHAR Z
ENCODING 90
SWIDTH 630 0
DWIDTH 7 0
BBX 6 8 0 0
BITMAP
FC
8C
1C
38
70
E0
C4
FC
ENDCHAR

STARTCHAR bracketleft
ENCODING 91
SWIDTH 360 0
DWIDTH 4 0
BBX 3 10 0 -2
BITMAP
E0
C0
C0
C0
C0
C0
C0
C0
C0
E0
ENDCHAR

STARTCHAR backslash
ENCODING 92
SWIDTH 450 0
DWIDTH 5 0
BBX 4 8 0 0
BITMAP
80
80
40
40
20
20
10
10
ENDCHAR

STARTCHAR bracketright
ENCODING 93
SWIDTH 360 0
DWIDTH 4 0
BBX 3 10 0 -2
BITMAP
E0
60
60
60
60
60
60
60
60
E0
ENDCHAR

STARTCHAR asciicircum
ENCODING 94
SWIDTH 540 0
DWIDTH 6 0
BBX 5 6 0 2
BITMAP
20
20
70
50
88
88
ENDCHAR

STARTCHAR underscore
ENCODING 95
SWIDTH 540 0
DWIDTH 6 0
BBX 6 1 0 -2
BITMAP
FC
ENDCHAR

STARTCHAR quoteleft
ENCODING 96
SWIDTH 270 0
DWIDTH 3 0
BBX 2 4 0 4
BITMAP
40
80
C0
C0
ENDCHAR

STARTCHAR a
ENCODING 97
SWIDTH 450 0
DWIDTH 5 0
BBX 4 5 0 0
BITMAP
E0
30
70
B0
F0
ENDCHAR

STARTCHAR b
ENCODING 98
SWIDTH 630 0
DWIDTH 7 0
BBX 6 8 0 0
BITMAP
C0
C0
C0
D8
EC
CC
CC
B8
ENDCHAR

STARTCHAR c
ENCODING 99
SWIDTH 540 0
DWIDTH 6 0
BBX 5 5 0 0
BITMAP
70
C8
C0
C8
70
ENDCHAR

STARTCHAR d
ENCODING 100
SWIDTH 630 0
DWIDTH 7 0
BBX 6 8 0 0
BITMAP
1C
0C
0C
7C
CC
CC
DC
6C
ENDCHAR

STARTCHAR e
ENCODING 101
SWIDTH 540 0
DWIDTH 6 0
BBX 5 5 0 0
BITMAP
70
D8
F8
C0
78
ENDCHAR

STARTCHAR f
ENCODING 102
SWIDTH 450 0
DWIDTH 5 0
BBX 5 8 0 0
BITMAP
38
68
60
F0
60
60
60
F0
ENDCHAR

STARTCHAR g
ENCODING 103
SWIDTH 540 0
DWIDTH 6 0
BBX 6 8 0 -2
BITMAP
08
70
D8
D8
70
7C
8C
F8
ENDCHAR

STARTCHAR h
ENCODING 104
SWIDTH 630 0
DWIDTH 7 0
BBX 6 8 0 0
BITMAP
C0
C0
C0
D8
EC
CC
CC
CC
ENDCHAR

STARTCHAR i
ENCODING 105
SWIDTH 450 0
DWIDTH 5 0
BBX 4 8 0 0
BITMAP
60
60
00
E0
60
60
60
F0
ENDCHAR

STARTCHAR j
ENCODING 106
SWIDTH 450 0
DWIDTH 5 0
BBX 3 10 0 -2
BITMAP
60
60
00
E0
60
60
60
60
60
C0
ENDCHAR

STARTCHAR k
ENCODING 107
SWIDTH 540 0
DWIDTH 6 0
BBX 6 8 0 0
BITMAP
C0
C0
C0
D8
F0
F0
D8
DC
ENDCHAR

STARTCHAR l
ENCODING 108
SWIDTH 450 0
DWIDTH 5 0
BBX 4 8 0 0
BITMAP
E0
60
60
60
60
60
60
F0
ENDCHAR

STARTCHAR m
ENCODING 109
SWIDTH 990 0
DWIDTH 11 0
BBX 10 5 0 0
BITMAP
D980
EEC0
CCC0
CCC0
CCC0
ENDCHAR

STARTCHAR n
ENCODING 110
SWIDTH 630 0
DWIDTH 7 0
BBX 6 5 0 0
BITMAP
D8
EC
CC
CC
CC
ENDCHAR

STARTCHAR o
ENCODING 111
SWIDTH 630 0
DWIDTH 7 0
BBX 6 5 0 0
BITMAP
78
CC
CC
CC
78
ENDCHAR

STARTCHAR p
ENCODING 112
SWIDTH 630 0
DWIDTH 7 0
BBX 6 7 0 -2
BITMAP
D8
EC
CC
CC
F8
C0
E0
ENDCHAR

STARTCHAR q
ENCODING 113
SWIDTH 630 0
DWIDTH 7 0
BBX 7 7 0 -2
BITMAP
7C
CC
CC
DC
6C
0C
1E
ENDCHAR

STARTCHAR r
ENCODING 114
SWIDTH 450 0
DWIDTH 5 0
BBX 4 5 0 0
BITMAP
D0
F0
C0
C0
C0
ENDCHAR

STARTCHAR s
ENCODING 115
SWIDTH 450 0
DWIDTH 5 0
BBX 4 5 0 0
BITMAP
70
C0
F0
30
E0
ENDCHAR

STARTCHAR t
ENCODING 116
SWIDTH 360 0
DWIDTH 4 0
BBX 3 7 0 0
BITMAP
40
C0
E0
C0
C0
C0
60
ENDCHAR

STARTCHAR u
ENCODING 117
SWIDTH 630 0
DWIDTH 7 0
BBX 6 5 0 0
BITMAP
CC
CC
CC
DC
6C
ENDCHAR

STARTCHAR v
ENCODING 118
SWIDTH 630 0
DWIDTH 7 0
BBX 6 5 0 0
BITMAP
EC
68
68
30
30
ENDCHAR

STARTCHAR w
ENCODING 119
SWIDTH 900 0
DWIDTH 10 0
BBX 9 5 0 0
BITMAP
ED80
6D00
6D00
3600
3600
ENDCHAR

STARTCHAR x
ENCODING 120
SWIDTH 630 0
DWIDTH 7 0
BBX 6 5 0 0
BITMAP
EC
68
30
58
DC
ENDCHAR

STARTCHAR y
ENCODING 121
SWIDTH 630 0
DWIDTH 7 0
BBX 6 7 0 -2
BITMAP
EC
68
68
30
30
E0
C0
ENDCHAR

STARTCHAR z
ENCODING 122
SWIDTH 540 0
DWIDTH 6 0
BBX 5 5 0 0
BITMAP
F8
B0
60
C8
F8
ENDCHAR

STARTCHAR braceleft
ENCODING 123
SWIDTH 450 0
DWIDTH 5 0
BBX 4 10 0 -2
BITMAP
30
60
60
60
C0
60
60
60
60
30
ENDCHAR

STARTCHAR bar
ENCODING 124
SWIDTH 540 0
DWIDTH 6 0
BBX 1 8 2 0
BITMAP
80
80
80
80
80
80
80
80
ENDCHAR

STARTCHAR braceright
ENCODING 125
SWIDTH 450 0
DWIDTH 5 0
BBX 4 10 0 -2
BITMAP
C0
60
60
60
30
60
60
60
60
C0
ENDCHAR

STARTCHAR asciitilde
ENCODING 126
SWIDTH 630 0
DWIDTH 7 0
BBX 6 2 0 3
BITMAP
74
B8
ENDCHAR

STARTCHAR cent
ENCODING 162
SWIDTH 540 0
DWIDTH 6 0
BBX 5 7 0 -1
BITMAP
08
78
D0
D0
E8
70
40
ENDCHAR

STARTCHAR sterling
ENCODING 163
SWIDTH 720 0
DWIDTH 8 0
BBX 7 8 0 0
BITMAP
3C
64
60
FC
30
62
BE
DC
ENDCHAR

STARTCHAR currency
ENCODING 164
SWIDTH 720 0
DWIDTH 8 0
BBX 7 5 0 1
BITMAP
BA
6C
6C
6C
BA
ENDCHAR

STARTCHAR yen
ENCODING 165
SWIDTH 810 0
DWIDTH 9 0
BBX 8 8 0 0
BITMAP
F7
62
34
36
18
3E
18
3C
ENDCHAR

STARTCHAR brokenbar
ENCODING 166
SWIDTH 540 0
DWIDTH 6 0
BBX 1 8 2 0
BITMAP
80
80
80
00
80
80
80
80
ENDCHAR

STARTCHAR section
ENCODING 167
SWIDTH 450 0
DWIDTH 5 0
BBX 4 10 0 -2
BITMAP
70
90
C0
60
B0
D0
60
30
90
E0
ENDCHAR

STARTCHAR dieresis
ENCODING 168
SWIDTH 360 0
DWIDTH 4 0
BBX 3 2 0 6
BITMAP
A0
A0
ENDCHAR

STARTCHAR copyright
ENCODING 169
SWIDTH 810 0
DWIDTH 9 0
BBX 8 8 0 0
BITMAP
3C
42
9D
A5
A1
9D
42
3C
ENDCHAR

STARTCHAR multiply
ENCODING 170
SWIDTH 540 0
DWIDTH 6 0
BBX 5 5 0 1
BITMAP
D8
70
20
70
D8
ENDCHAR

STARTCHAR guillemotleft
ENCODING 171
SWIDTH 630 0
DWIDTH 7 0
BBX 6 5 0 0
BITMAP
24
6C
D8
6C
24
ENDCHAR

STARTCHAR logicalnot
ENCODING 172
SWIDTH 540 0
DWIDTH 6 0
BBX 5 3 0 2
BITMAP
F8
08
08
ENDCHAR

STARTCHAR hyphen
ENCODING 173
SWIDTH 360 0
DWIDTH 4 0
BBX 3 1 0 3
BITMAP
E0
ENDCHAR

STARTCHAR registered
ENCODING 174
SWIDTH 810 0
DWIDTH 9 0
BBX 8 8 0 0
BITMAP
3C
42
BD
A5
B9
AD
42
3C
ENDCHAR

STARTCHAR macron
ENCODING 175
SWIDTH 450 0
DWIDTH 5 0
BBX 4 1 0 6
BITMAP
F0
ENDCHAR

STARTCHAR degree
ENCODING 176
SWIDTH 360 0
DWIDTH 4 0
BBX 3 4 0 4
BITMAP
40
A0
A0
40
ENDCHAR

STARTCHAR plusminus
ENCODING 177
SWIDTH 540 0
DWIDTH 6 0
BBX 5 5 0 1
BITMAP
20
F8
20
00
F8
ENDCHAR

STARTCHAR twosuperior
ENCODING 178
SWIDTH 270 0
DWIDTH 3 0
BBX 3 4 0 4
BITMAP
60
A0
40
E0
ENDCHAR

STARTCHAR threesuperior
ENCODING 179
SWIDTH 270 0
DWIDTH 3 0
BBX 3 4 0 4
BITMAP
E0
40
20
C0
ENDCHAR

STARTCHAR acute
ENCODING 180
SWIDTH 360 0
DWIDTH 4 0
BBX 3 2 0 6
BITMAP
60
C0
ENDCHAR

STARTCHAR mu
ENCODING 181
SWIDTH 630 0
DWIDTH 7 0
BBX 6 7 0 -2
BITMAP
CC
CC
CC
DC
EC
C0
C0
ENDCHAR

STARTCHAR paragraph
ENCODING 182
SWIDTH 720 0
DWIDTH 8 0
BBX 7 8 0 0
BITMAP
7E
F4
F4
74
14
14
14
3E
ENDCHAR

STARTCHAR periodcentered
ENCODING 183
SWIDTH 270 0
DWIDTH 3 0
BBX 2 2 0 3
BITMAP
C0
C0
ENDCHAR

STARTCHAR cedilla
ENCODING 184
SWIDTH 360 0
DWIDTH 4 0
BBX 2 3 1 -2
BITMAP
80
40
C0
ENDCHAR

STARTCHAR onesuperior
ENCODING 185
SWIDTH 270 0
DWIDTH 3 0
BBX 3 4 0 4
BITMAP
40
C0
40
E0
ENDCHAR

STARTCHAR divide
ENCODING 186
SWIDTH 540 0
DWIDTH 6 0
BBX 5 5 0 1
BITMAP
20
00
F8
00
20
ENDCHAR

STARTCHAR guillemotright
ENCODING 187
SWIDTH 630 0
DWIDTH 7 0
BBX 6 5 0 0
BITMAP
90
D8
6C
D8
90
ENDCHAR

STARTCHAR onequarter
ENCODING 188
SWIDTH 810 0
DWIDTH 9 0
BBX 8 8 0 0
BITMAP
44
C4
48
E8
12
16
2F
22
ENDCHAR

STARTCHAR onehalf
ENCODING 189
SWIDTH 810 0
DWIDTH 9 0
BBX 8 8 0 0
BITMAP
44
C4
48
E8
13
15
22
27
ENDCHAR

STARTCHAR threequarters
ENCODING 190
SWIDTH 810 0
DWIDTH 9 0
BBX 8 8 0 0
BITMAP
E4
44
28
C8
12
16
2F
22
ENDCHAR

STARTCHAR dblunderscore
ENCODING 223
SWIDTH 450 0
DWIDTH 5 0
BBX 5 7 0 -3
BITMAP
00
00
F8
00
00
F8
00
ENDCHAR

STARTCHAR aleph
ENCODING 224
SWIDTH 630 0
DWIDTH 7 0
BBX 6 7 0 0
BITMAP
CC
6C
68
B8
58
CC
CC
ENDCHAR

STARTCHAR beth
ENCODING 225
SWIDTH 540 0
DWIDTH 6 0
BBX 5 7 0 0
BITMAP
F0
F0
10
10
10
F8
F8
ENDCHAR

STARTCHAR gimmel
ENCODING 226
SWIDTH 450 0
DWIDTH 5 0
BBX 5 7 0 0
BITMAP
E0
E0
20
20
70
F0
D0
ENDCHAR

STARTCHAR daleth
ENCODING 227
SWIDTH 630 0
DWIDTH 7 0
BBX 6 7 0 0
BITMAP
FC
FC
10
18
18
18
10
ENDCHAR

STARTCHAR he
ENCODING 228
SWIDTH 630 0
DWIDTH 7 0
BBX 6 7 1 0
BITMAP
F8
F8
10
98
D8
D8
90
ENDCHAR

STARTCHAR waw
ENCODING 229
SWIDTH 360 0
DWIDTH 4 0
BBX 3 7 0 0
BITMAP
E0
E0
20
20
20
20
20
ENDCHAR

STARTCHAR zayin
ENCODING 230
SWIDTH 450 0
DWIDTH 5 0
BBX 4 7 0 0
BITMAP
F0
F0
20
40
60
60
40
ENDCHAR

STARTCHAR het
ENCODING 231
SWIDTH 720 0
DWIDTH 8 0
BBX 7 7 1 0
BITMAP
FC
FC
88
8C
CC
CC
88
ENDCHAR

STARTCHAR teth
ENCODING 232
SWIDTH 720 0
DWIDTH 8 0
BBX 8 7 0 0
BITMAP
EC
EE
56
82
C6
7C
7C
ENDCHAR

STARTCHAR yod
ENCODING 233
SWIDTH 360 0
DWIDTH 4 0
BBX 3 5 0 2
BITMAP
E0
E0
20
60
40
ENDCHAR

STARTCHAR kaphfinal
ENCODING 234
SWIDTH 630 0
DWIDTH 7 0
BBX 6 9 0 -2
BITMAP
FC
FC
08
08
0C
08
0C
0C
08
ENDCHAR

STARTCHAR kaph
ENCODING 235
SWIDTH 540 0
DWIDTH 6 0
BBX 5 7 0 0
BITMAP
F0
F8
18
08
18
F8
F0
ENDCHAR

STARTCHAR lamed
ENCODING 236
SWIDTH 540 0
DWIDTH 6 0
BBX 5 10 0 0
BITMAP
C0
E0
40
78
78
08
18
10
30
30
ENDCHAR

STARTCHAR memfinal
ENCODING 237
SWIDTH 540 0
DWIDTH 6 0
BBX 6 7 0 0
BITMAP
F8
F8
48
88
88
F8
F8
ENDCHAR

STARTCHAR mem
ENCODING 238
SWIDTH 630 0
DWIDTH 7 0
BBX 6 7 0 0
BITMAP
E8
FC
2C
44
C4
DC
DC
ENDCHAR

STARTCHAR nunfinal
ENCODING 239
SWIDTH 360 0
DWIDTH 4 0
BBX 3 9 0 -2
BITMAP
E0
E0
20
60
40
60
60
60
40
ENDCHAR

STARTCHAR nun
ENCODING 240
SWIDTH 450 0
DWIDTH 5 0
BBX 4 7 0 0
BITMAP
70
70
10
10
10
F0
F0
ENDCHAR

STARTCHAR samekh
ENCODING 241
SWIDTH 720 0
DWIDTH 8 0
BBX 6 7 1 0
BITMAP
F8
FC
4C
84
84
FC
78
ENDCHAR

STARTCHAR ayin
ENCODING 242
SWIDTH 540 0
DWIDTH 6 0
BBX 5 9 0 -2
BITMAP
D8
D8
48
48
58
F8
F0
00
00
ENDCHAR

STARTCHAR pefinal
ENCODING 243
SWIDTH 540 0
DWIDTH 6 0
BBX 5 9 0 -2
BITMAP
F8
F8
48
48
E8
08
08
08
08
ENDCHAR

STARTCHAR pe
ENCODING 244
SWIDTH 540 0
DWIDTH 6 0
BBX 5 7 0 0
BITMAP
F8
F8
48
E8
08
F8
F8
ENDCHAR

STARTCHAR zadikfinal
ENCODING 245
SWIDTH 540 0
DWIDTH 6 0
BBX 5 9 0 -2
BITMAP
D8
D8
50
60
60
60
60
60
40
ENDCHAR

STARTCHAR zadik
ENCODING 246
SWIDTH 630 0
DWIDTH 7 0
BBX 6 7 0 0
BITMAP
EC
EC
28
38
18
F8
F8
ENDCHAR

STARTCHAR kof
ENCODING 247
SWIDTH 630 0
DWIDTH 7 0
BBX 6 9 1 -2
BITMAP
F8
F8
08
98
90
F0
F0
C0
C0
ENDCHAR

STARTCHAR resh
ENCODING 248
SWIDTH 540 0
DWIDTH 6 0
BBX 5 7 0 0
BITMAP
F8
F8
08
08
08
08
08
ENDCHAR

STARTCHAR shin
ENCODING 249
SWIDTH 900 0
DWIDTH 10 0
BBX 9 7 1 0
BITMAP
DB00
DB00
4900
9300
D200
7E00
7C00
ENDCHAR

STARTCHAR taf
ENCODING 250
SWIDTH 720 0
DWIDTH 8 0
BBX 7 7 0 0
BITMAP
7C
7E
12
22
32
72
72
ENDCHAR
ENDFONT
